<svg width="320" height="190" viewBox="0 0 320 190" fill="none" xmlns="http://www.w3.org/2000/svg" role="img" aria-label="USA flag patch">
  <title>USA flag patch</title>
  <defs>
    <linearGradient id="patch" x1="0" y1="0" x2="0" y2="1" gradientUnits="objectBoundingBox">
      <stop stop-color="#14251c" />
      <stop offset="1" stop-color="#0b1511" />
    </linearGradient>
    <pattern id="stars" x="0" y="0" width="18" height="16" patternUnits="userSpaceOnUse">
      <path d="M4.5 1.2L5.6 4H8.6L6.2 5.7L7.2 8.5L4.5 6.9L1.8 8.5L2.8 5.7L0.4 4H3.4L4.5 1.2Z" fill="#F5F0E1" />
    </pattern>
  </defs>
  <rect width="320" height="190" rx="18" fill="#0b0f0c" />
  <rect x="6" y="6" width="308" height="178" rx="14" fill="url(#patch)" stroke="#caa35d" stroke-width="4" />
  <g>
    <rect x="16" y="16" width="288" height="158" rx="10" fill="#0f1c16" stroke="#1f3329" stroke-width="2" />
    <g>
      <rect x="16" y="16" width="288" height="12" fill="#B22234" />
      <rect x="16" y="28" width="288" height="12" fill="#F5F0E1" />
      <rect x="16" y="40" width="288" height="12" fill="#B22234" />
      <rect x="16" y="52" width="288" height="12" fill="#F5F0E1" />
      <rect x="16" y="64" width="288" height="12" fill="#B22234" />
      <rect x="16" y="76" width="288" height="12" fill="#F5F0E1" />
      <rect x="16" y="88" width="288" height="12" fill="#B22234" />
      <rect x="16" y="100" width="288" height="12" fill="#F5F0E1" />
      <rect x="16" y="112" width="288" height="12" fill="#B22234" />
      <rect x="16" y="124" width="288" height="12" fill="#F5F0E1" />
      <rect x="16" y="136" width="288" height="12" fill="#B22234" />
      <rect x="16" y="148" width="288" height="12" fill="#F5F0E1" />
      <rect x="16" y="160" width="288" height="12" fill="#B22234" />
    </g>
    <rect x="16" y="16" width="122" height="84" rx="6" fill="#0A3161" />
    <rect x="16" y="16" width="122" height="84" rx="6" fill="url(#stars)" opacity="0.9" />
    <rect x="16" y="16" width="288" height="158" rx="10" stroke="#caa35d" stroke-width="1.6" opacity="0.6" />
    <rect x="16" y="16" width="288" height="158" rx="10" stroke="rgba(255,255,255,0.16)" stroke-width="1" />
  </g>
</svg>
